<svg width="20" height="21" viewBox="0 0 20 21" fill="none" xmlns="http://www.w3.org/2000/svg">
<path d="M2.42429 7.11455H17.5758M10 18.4782C14.6023 18.4782 18.3334 14.7471 18.3334 10.1449C18.3334 5.54258 14.6023 1.81152 10 1.81152C5.39777 1.81152 1.66671 5.54258 1.66671 10.1449C1.66671 14.7471 5.39777 18.4782 10 18.4782ZM10 18.4782C12.2728 18.4782 13.0303 14.6903 13.0303 10.1449C13.0303 5.5994 12.2728 1.81152 10 1.81152C7.72731 1.81152 6.96974 5.5994 6.96974 10.1449C6.96974 14.6903 7.72731 18.4782 10 18.4782ZM2.42429 13.1752H17.5758H2.42429Z" stroke="#828282" stroke-width="1.5"/>
</svg>
