<svg width="78" height="35" viewBox="0 0 78 35" fill="none" xmlns="http://www.w3.org/2000/svg">
<path d="M52.5246 4.047C50.3645 7.91906 48.7535 11.0401 47.6896 13.4042C46.6277 15.7722 45.7616 18.0757 45.0954 20.3165C44.4292 22.5574 43.9165 24.9012 43.5611 27.348H37.5814C38.1548 23.8676 39.1702 20.3408 40.6238 16.7756C42.0773 13.2063 44.086 9.36251 46.6479 5.23405H33.9113V0.651367H52.5267V4.047H52.5246Z" fill="#6EBBC5"/>
<path d="M77.4864 27.3501H70.9374L66.7484 20.4034C65.8864 18.968 65.1798 18.0413 64.6286 17.6295C64.0775 17.2177 63.49 17.0077 62.8703 17.0077H61.1482V27.3501H55.4592V0.651367H64.8184C71.1716 0.651367 74.3492 3.06586 74.3492 7.89282C74.3492 9.70772 73.8162 11.2642 72.7543 12.5623C71.6924 13.8604 70.2308 14.7769 68.3675 15.3038V15.3725C69.5969 15.7843 70.9596 17.141 72.4515 19.4404L77.4864 27.3501ZM61.1482 4.97766V12.6673H63.9402C65.2747 12.6673 66.3446 12.2797 67.1542 11.5045C67.9637 10.7292 68.3695 9.76021 68.3695 8.60142C68.3695 6.18693 66.9281 4.97968 64.0432 4.97968H61.1482V4.97766Z" fill="#163663"/>
<path d="M15.1238 18.7798C13.208 18.7798 11.6232 20.1768 11.3325 22.0079V22.0119C11.3285 22.0119 11.3285 22.0119 11.3325 22.0159C11.2982 22.2077 11.2841 22.4116 11.2841 22.6135C11.2841 22.7952 11.2982 22.9789 11.3285 23.1565C11.5849 25.0179 13.1898 26.4452 15.1258 26.4452C17.2436 26.4452 18.9616 24.7312 18.9616 22.6135C18.9596 20.4937 17.2415 18.7798 15.1238 18.7798Z" fill="#163663"/>
<path d="M14.0648 14.947C16.1886 14.947 17.9005 13.229 17.9005 11.1153C17.9005 10.7196 17.842 10.3441 17.737 9.98879C17.5896 9.52447 17.3615 9.09446 17.0647 8.71897C16.3642 7.84079 15.2821 7.27148 14.0628 7.27148C13.3421 7.27148 12.6658 7.46933 12.0884 7.81858C11.6786 8.06487 11.3132 8.38587 11.0225 8.76742C10.5198 9.41344 10.2271 10.229 10.2271 11.1133C10.2291 13.229 11.9471 14.947 14.0648 14.947Z" fill="#163663"/>
<path d="M28.1098 0.00390625H8.45677L8.59001 1.03148L9.18152 5.54956C9.43387 5.32749 9.70035 5.11956 9.98097 4.93787C11.1559 4.15861 12.559 3.70841 14.065 3.70841C16.5279 3.70841 18.7062 4.90758 20.0487 6.75883C20.3394 7.15451 20.5958 7.5825 20.7997 8.03673C21.2297 8.97547 21.472 10.0172 21.472 11.1174C21.472 13.2069 20.6039 15.0965 19.2049 16.445C21.2055 17.7674 22.5278 20.0385 22.5278 22.6226C22.5278 26.7107 19.2109 30.0235 15.1229 30.0235C11.376 30.0235 8.28517 27.2396 7.79662 23.6199L7.75221 23.2848L7.74817 23.2545L4.71391 0.00390625H1.63927C0.732826 0.00390625 0 0.738752 0 1.64318V31.1419C0 32.0484 0.734845 32.7812 1.63927 32.7812H9.58124C9.54087 32.3976 9.59538 32.008 9.74679 31.6487C9.75082 31.6285 9.77303 31.58 9.79524 31.5296C10.0819 30.9441 10.5604 30.5242 11.1559 30.3183C11.4062 30.2355 11.6566 30.1951 11.9089 30.1951C12.8699 30.1951 13.7218 30.7665 14.0832 31.6507C14.0993 31.687 14.1175 31.7375 14.1357 31.79C14.2447 32.113 14.279 32.4501 14.2467 32.7812H16.8853C16.853 32.4098 16.9095 32.0343 17.0549 31.685C17.0589 31.6648 17.0811 31.6164 17.1033 31.5659C17.39 30.9804 17.8684 30.5605 18.464 30.3546C18.7143 30.2718 18.9646 30.2315 19.217 30.2315C20.1779 30.2315 21.0299 30.8028 21.3912 31.687C21.4074 31.7234 21.4256 31.7738 21.4437 31.8263C21.5487 32.1372 21.5851 32.4602 21.5588 32.7792H28.1118C29.0183 32.7792 29.7511 32.0444 29.7511 31.1399V1.64318C29.7511 0.738752 29.0163 0.00390625 28.1098 0.00390625Z" fill="#163663"/>
<path d="M7.74985 23.2809L7.79426 23.616C8.28281 27.2357 11.3736 30.0196 15.1205 30.0196C19.2086 30.0196 22.5255 26.7068 22.5255 22.6187C22.5255 20.0366 21.2032 17.7655 19.2025 16.4411C20.5995 15.0926 21.4696 13.203 21.4696 11.1135C21.4696 10.0133 21.2274 8.97157 20.7974 8.03282C20.5955 7.57859 20.3391 7.14859 20.0464 6.75492C18.7039 4.90368 16.5256 3.70451 14.0627 3.70451C12.5566 3.70451 11.1556 4.1547 9.97861 4.93396C9.698 5.11565 9.43151 5.32359 9.17916 5.54565L8.58765 1.02757L8.45441 0H4.71155L7.74379 23.2506L7.74985 23.2809ZM15.1225 26.4504C13.1865 26.4504 11.5815 25.0231 11.3252 23.1617C11.2949 22.9841 11.2807 22.8004 11.2807 22.6187C11.2807 22.4168 11.2949 22.2129 11.3292 22.0211C11.3252 22.0171 11.3252 22.0171 11.3292 22.0171V22.013C11.6199 20.182 13.2047 18.785 15.1205 18.785C17.2382 18.785 18.9562 20.4989 18.9562 22.6207C18.9583 24.7384 17.2402 26.4504 15.1225 26.4504ZM11.0243 8.76968C11.3151 8.39015 11.6805 8.06916 12.0903 7.82085C12.6677 7.46958 13.344 7.27375 14.0647 7.27375C15.284 7.27375 16.3661 7.84104 17.0666 8.72123C17.3634 9.09673 17.5895 9.52674 17.7389 9.99106C17.8419 10.3464 17.9024 10.7219 17.9024 11.1176C17.9024 13.2312 16.1885 14.9492 14.0667 14.9492C11.949 14.9492 10.231 13.2312 10.231 11.1176C10.2289 10.2313 10.5196 9.41772 11.0243 8.76968Z" fill="#6EBBC5"/>
<path d="M20.8443 32.0262C20.8342 31.9939 20.8241 31.9636 20.812 31.9353C20.5475 31.2893 19.9096 30.8613 19.2191 30.8613C19.0354 30.8613 18.8497 30.8916 18.668 30.9502C18.236 31.0995 17.8847 31.4064 17.6869 31.8122C17.6687 31.8505 17.6586 31.8727 17.6505 31.895C17.5294 32.1857 17.489 32.4844 17.5234 32.7752C17.5375 32.8922 17.5617 33.0093 17.6001 33.1224C17.7454 33.5564 18.0543 33.9077 18.4641 34.1116C18.876 34.3155 19.3383 34.3458 19.7703 34.1984H19.7723C20.2043 34.0531 20.5556 33.7462 20.7595 33.3344C20.8483 33.1567 20.9008 32.9669 20.925 32.7752C20.9513 32.5289 20.9271 32.2725 20.8443 32.0262Z" fill="#163663"/>
<path d="M13.5363 31.9969C13.5262 31.9646 13.5161 31.9343 13.504 31.906C13.2396 31.26 12.6016 30.832 11.9112 30.832C11.7275 30.832 11.5417 30.8623 11.3601 30.9209C10.928 31.0703 10.5768 31.3771 10.3789 31.7829C10.3607 31.8212 10.3507 31.8435 10.3426 31.8657C10.2154 32.1685 10.177 32.4814 10.2194 32.7822C10.2336 32.8872 10.2578 32.9901 10.2921 33.0931C10.4375 33.5271 10.7463 33.8784 11.1562 34.0823C11.568 34.2862 12.0303 34.3165 12.4623 34.1691H12.4643C12.8964 34.0238 13.2476 33.7169 13.4515 33.3051C13.5343 33.1375 13.5868 32.9619 13.613 32.7842C13.6474 32.5238 13.6252 32.2553 13.5363 31.9969Z" fill="#163663"/>
<path d="M33.8143 31.2773C33.8253 31.0503 33.8331 30.7113 33.8378 30.26C33.8438 29.8088 33.8429 29.4691 33.8352 29.2408C33.9488 29.2435 34.041 29.2448 34.1118 29.2448C34.1933 29.2448 34.2814 29.2435 34.3761 29.2408L34.3711 29.5632C34.4117 29.5005 34.4487 29.4497 34.4821 29.411C34.5168 29.371 34.5616 29.3343 34.6166 29.3009C34.6716 29.2675 34.7361 29.2415 34.8103 29.2228C34.8858 29.2028 34.9636 29.1928 35.0437 29.1928C35.1038 29.1928 35.1621 29.1988 35.2186 29.2108C35.2751 29.2215 35.3264 29.2375 35.3725 29.2588C35.42 29.2789 35.4602 29.3022 35.4931 29.3289C35.5274 29.3556 35.5565 29.3857 35.5803 29.419C35.6041 29.4511 35.6305 29.4991 35.6594 29.5632C35.6872 29.5165 35.7126 29.4778 35.7356 29.4471C35.7599 29.415 35.7921 29.3823 35.8324 29.3489C35.8727 29.3156 35.9178 29.2875 35.9678 29.2648C36.0178 29.2421 36.074 29.2248 36.1363 29.2128C36.2 29.1994 36.2659 29.1928 36.334 29.1928C36.4502 29.1928 36.5604 29.2121 36.6646 29.2508C36.7687 29.2882 36.8516 29.3483 36.9131 29.431C36.9747 29.5125 37.0075 29.6139 37.0117 29.7354C37.0138 29.7995 37.0124 29.8936 37.0072 30.0178C37.0021 30.1419 36.9977 30.3448 36.9939 30.6265C36.9901 30.9068 36.9901 31.1238 36.994 31.2773C36.8964 31.2746 36.8102 31.2733 36.7354 31.2733C36.6472 31.2733 36.5438 31.2746 36.425 31.2773C36.4311 31.1051 36.4363 30.9249 36.4406 30.7366L36.4491 30.2781C36.4518 30.1619 36.4518 30.0638 36.4491 29.9837C36.4459 29.8889 36.4281 29.8175 36.3957 29.7695C36.3646 29.7201 36.3254 29.6854 36.278 29.6653C36.2318 29.644 36.18 29.6333 36.1226 29.6333C36.0625 29.6333 36.0081 29.6446 35.9595 29.6673C35.9121 29.69 35.868 29.7267 35.827 29.7775C35.7873 29.8282 35.7572 29.8876 35.7369 29.9557C35.7164 30.0224 35.7029 30.1172 35.6964 30.24C35.6899 30.3615 35.6866 30.5217 35.6867 30.7206L35.6917 31.2773C35.5807 31.2746 35.4885 31.2733 35.415 31.2733C35.3416 31.2733 35.2434 31.2746 35.1206 31.2773C35.1265 31.1745 35.1327 30.9642 35.1392 30.6465C35.1458 30.3288 35.1472 30.1145 35.1434 30.0037C35.1414 29.945 35.1351 29.8956 35.1244 29.8556C35.1136 29.8142 35.0929 29.7755 35.0623 29.7394C35.033 29.702 34.9987 29.6747 34.9593 29.6573C34.92 29.64 34.875 29.6313 34.8242 29.6313C34.7307 29.6313 34.6496 29.662 34.5809 29.7234C34.5122 29.7848 34.4629 29.8669 34.433 29.9697C34.4044 30.0725 34.3879 30.2727 34.3833 30.5704C34.38 30.8668 34.3814 31.1024 34.3873 31.2773C34.2643 31.2746 34.1715 31.2733 34.1087 31.2733C34.0379 31.2733 33.9398 31.2746 33.8143 31.2773Z" fill="#2B4872"/>
<path d="M37.577 29.6874C37.5925 29.5912 37.6015 29.5238 37.6042 29.4851C37.6082 29.4464 37.6149 29.3877 37.6243 29.3089C37.8045 29.2662 37.9637 29.2361 38.1021 29.2188C38.2404 29.2014 38.3743 29.1928 38.5039 29.1928C38.6508 29.1928 38.7863 29.2101 38.9104 29.2448C39.0344 29.2782 39.1324 29.3323 39.2044 29.407C39.2764 29.4818 39.3148 29.5892 39.3196 29.7294C39.3222 29.8055 39.3181 29.9997 39.3073 30.3121C39.2966 30.6232 39.2948 30.9449 39.3021 31.2773C39.2005 31.2746 39.107 31.2733 39.0215 31.2733C38.94 31.2733 38.8445 31.2746 38.7351 31.2773C38.747 31.1158 38.7546 30.9289 38.7581 30.7166L38.7672 30.218C38.7176 30.2514 38.6796 30.2747 38.6534 30.2881C38.6271 30.3014 38.5975 30.3141 38.5645 30.3261C38.5315 30.3368 38.4733 30.3542 38.3899 30.3782C38.3066 30.4009 38.2398 30.4209 38.1896 30.4383C38.1395 30.4556 38.0941 30.4756 38.0534 30.4983C38.0141 30.5197 37.9809 30.5444 37.9538 30.5724C37.9266 30.5991 37.9069 30.6278 37.8946 30.6585C37.8836 30.6879 37.8786 30.7199 37.8798 30.7546C37.8817 30.8107 37.8994 30.8594 37.9329 30.9008C37.9676 30.9409 38.01 30.9689 38.06 30.9849C38.1099 31.0009 38.1683 31.009 38.2351 31.009C38.2778 31.009 38.3225 31.0056 38.369 30.9989C38.4169 30.9923 38.4804 30.9756 38.5596 30.9489C38.5342 31.025 38.5053 31.1384 38.473 31.2893C38.3787 31.3053 38.3036 31.3153 38.2477 31.3193C38.1917 31.3233 38.1397 31.3253 38.0916 31.3253C37.9233 31.3253 37.7843 31.3026 37.6745 31.2573C37.5648 31.2119 37.4822 31.1398 37.4267 31.041C37.3726 30.9422 37.3439 30.8428 37.3404 30.7426C37.3385 30.6852 37.3466 30.6285 37.3647 30.5724C37.3828 30.5164 37.4105 30.465 37.4476 30.4182C37.4848 30.3715 37.5333 30.3268 37.5933 30.2841C37.6533 30.24 37.7407 30.198 37.8555 30.1579C37.9703 30.1165 38.1225 30.0752 38.3121 30.0338C38.3625 30.0231 38.4148 30.0104 38.4691 29.9957C38.5233 29.9797 38.5662 29.9644 38.5978 29.9497C38.6307 29.935 38.6587 29.9163 38.682 29.8936C38.7052 29.8696 38.7218 29.8449 38.7316 29.8195C38.7427 29.7942 38.7479 29.7681 38.747 29.7414C38.7452 29.6894 38.7263 29.6453 38.6904 29.6093C38.6558 29.5732 38.6108 29.5485 38.5556 29.5352C38.5017 29.5205 38.442 29.5131 38.3765 29.5131C38.1334 29.5131 37.8669 29.5712 37.577 29.6874Z" fill="#2B4872"/>
<path d="M39.805 31.2773L39.8274 30.7567L39.8395 29.7574L39.8324 28.9024C39.8298 28.7475 39.8271 28.6281 39.8242 28.544C39.9646 28.5466 40.0641 28.548 40.1229 28.548C40.1924 28.548 40.2838 28.5466 40.3973 28.544L40.3773 29.1948L40.3645 30.232L40.3708 31.007L40.378 31.2773C40.2591 31.2746 40.1655 31.2733 40.0974 31.2733C40.0199 31.2733 39.9225 31.2746 39.805 31.2773ZM40.4054 30.1379L40.7952 29.6413C40.8285 29.5986 40.8681 29.5459 40.9141 29.4831C40.96 29.4204 41.0181 29.3396 41.0882 29.2408C41.2272 29.2435 41.3287 29.2448 41.3928 29.2448C41.481 29.2448 41.5925 29.2435 41.7273 29.2408L41.0939 29.9977L40.9806 30.1419C41.0833 30.2968 41.3667 30.6752 41.8306 31.2773C41.7103 31.2746 41.6074 31.2733 41.522 31.2733C41.4365 31.2733 41.3303 31.2746 41.2035 31.2773C41.1217 31.1505 41.0548 31.049 41.0028 30.9729C40.9521 30.8955 40.9051 30.8281 40.8617 30.7707L40.5045 30.2841C40.4947 30.2707 40.4617 30.222 40.4054 30.1379Z" fill="#2B4872"/>
<path d="M43.8608 30.8227C43.8462 30.9015 43.8263 31.043 43.8011 31.2472C43.6579 31.278 43.5371 31.2986 43.4386 31.3093C43.3401 31.32 43.2408 31.3253 43.1406 31.3253C42.9656 31.3253 42.8081 31.308 42.668 31.2733C42.5292 31.2386 42.4062 31.1752 42.2989 31.083C42.1915 30.9896 42.1108 30.8755 42.0568 30.7406C42.0028 30.6058 41.9733 30.4643 41.9682 30.3161C41.9627 30.1519 41.986 29.9931 42.0382 29.8395C42.0904 29.6847 42.1662 29.5585 42.2657 29.4611C42.3666 29.3623 42.4824 29.2929 42.6133 29.2528C42.7441 29.2114 42.8817 29.1908 43.0259 29.1908C43.1622 29.1908 43.2923 29.2081 43.4164 29.2428C43.5404 29.2762 43.6451 29.3316 43.7306 29.409C43.8174 29.4864 43.8847 29.5799 43.9325 29.6894C43.9816 29.7975 44.0084 29.9183 44.0129 30.0518C44.0151 30.1145 44.0106 30.1793 43.9995 30.246L42.5309 30.248C42.53 30.2974 42.53 30.3368 42.531 30.3662C42.534 30.4556 42.5522 30.5377 42.5854 30.6125C42.6187 30.6872 42.6656 30.7506 42.7261 30.8027C42.7867 30.8548 42.8581 30.8935 42.9405 30.9188C43.0228 30.9429 43.1033 30.9549 43.1821 30.9549C43.2743 30.9549 43.3734 30.9449 43.4796 30.9249C43.5871 30.9048 43.7142 30.8708 43.8608 30.8227ZM42.539 30.0138L43.4767 30.0158C43.4746 29.9517 43.471 29.9043 43.4659 29.8736C43.4608 29.8429 43.4503 29.8082 43.4343 29.7695C43.4196 29.7294 43.3997 29.6947 43.3747 29.6653C43.3496 29.6346 43.3207 29.6093 43.2879 29.5892C43.2552 29.5692 43.2173 29.5539 43.1742 29.5432C43.1324 29.5325 43.0875 29.5272 43.0394 29.5272C42.9833 29.5272 42.9288 29.5358 42.876 29.5532C42.8245 29.5705 42.7772 29.5959 42.7343 29.6293C42.6914 29.6627 42.6566 29.7 42.6299 29.7414C42.6046 29.7828 42.5859 29.8229 42.5739 29.8616C42.5618 29.8989 42.5502 29.9497 42.539 30.0138Z" fill="#2B4872"/>
<path d="M45.1639 32.1984C45.133 31.9982 45.1088 31.854 45.0911 31.7659C45.2213 31.8259 45.3432 31.856 45.4568 31.856C45.4915 31.856 45.5268 31.8513 45.5625 31.842C45.5983 31.834 45.6313 31.8219 45.6615 31.8059C45.6811 31.7952 45.7006 31.7799 45.72 31.7599C45.7407 31.7398 45.7682 31.7031 45.8024 31.6497C45.8366 31.5963 45.8662 31.5436 45.8912 31.4915C45.9111 31.4475 45.9312 31.3921 45.9517 31.3253L45.4934 30.1059L45.1594 29.2408C45.2998 29.2435 45.4007 29.2448 45.4621 29.2448C45.5329 29.2448 45.6257 29.2435 45.7405 29.2408C45.7723 29.3516 45.8016 29.4477 45.8284 29.5292L46.0402 30.1579C46.1055 30.3515 46.1525 30.497 46.1812 30.5945C46.1994 30.6585 46.221 30.7433 46.246 30.8488C46.2819 30.7273 46.3133 30.6285 46.3401 30.5524C46.3875 30.4136 46.454 30.228 46.5395 29.9957L46.7176 29.5171C46.7494 29.4317 46.7817 29.3396 46.8144 29.2408C46.9347 29.2435 47.0263 29.2448 47.089 29.2448C47.1465 29.2448 47.2426 29.2435 47.3774 29.2408L46.6648 30.9689L46.3562 31.7318C46.3128 31.8306 46.2707 31.9074 46.2298 31.9621C46.1966 32.0088 46.1599 32.0489 46.1197 32.0823C46.0807 32.1143 46.0388 32.141 45.9942 32.1624C45.9376 32.1891 45.8762 32.2104 45.81 32.2264C45.7344 32.2425 45.6579 32.2505 45.5804 32.2505C45.5363 32.2505 45.4747 32.2465 45.3957 32.2384C45.3166 32.2304 45.2393 32.2171 45.1639 32.1984Z" fill="#2B4872"/>
<path d="M48.62 29.1928C48.7736 29.1928 48.9213 29.2161 49.0632 29.2628C49.2063 29.3082 49.3282 29.3763 49.4288 29.4671C49.5307 29.5565 49.6085 29.6667 49.6624 29.7975C49.7162 29.927 49.7456 30.0638 49.7505 30.208C49.7557 30.3602 49.7346 30.507 49.6874 30.6485C49.6401 30.79 49.5688 30.9128 49.4735 31.017C49.3781 31.1198 49.2572 31.1972 49.1107 31.2492C48.9655 31.3 48.8094 31.3253 48.6425 31.3253C48.4875 31.3253 48.3392 31.3026 48.1974 31.2573C48.0569 31.2105 47.9356 31.1411 47.8336 31.049C47.7317 30.9569 47.6524 30.8448 47.5958 30.7126C47.5405 30.5804 47.5105 30.4423 47.5055 30.2981C47.5005 30.1513 47.5192 30.0111 47.5614 29.8776C47.6036 29.7441 47.6723 29.6253 47.7676 29.5212C47.8643 29.417 47.9891 29.3363 48.1421 29.2789C48.2951 29.2215 48.4544 29.1928 48.62 29.1928ZM48.634 29.6053C48.5178 29.6053 48.4146 29.634 48.3244 29.6914C48.2355 29.7474 48.1702 29.8315 48.1286 29.9437C48.0884 30.0558 48.0705 30.1779 48.075 30.3101C48.0789 30.4263 48.1005 30.5297 48.1396 30.6205C48.1801 30.7113 48.2427 30.7847 48.3274 30.8408C48.4135 30.8968 48.514 30.9249 48.6288 30.9249C48.7464 30.9249 48.8483 30.8962 48.9345 30.8388C49.022 30.78 49.0858 30.6946 49.1261 30.5824C49.1677 30.469 49.1861 30.3442 49.1815 30.208C49.1777 30.0972 49.1569 29.9964 49.1191 29.9056C49.0813 29.8148 49.02 29.7421 48.9354 29.6874C48.852 29.6326 48.7516 29.6053 48.634 29.6053Z" fill="#2B4872"/>
<path d="M52.1992 31.2773C52.0816 31.2746 51.9914 31.2733 51.9286 31.2733C51.8498 31.2733 51.7603 31.2746 51.6602 31.2773L51.6529 30.9449C51.6174 31.0009 51.5863 31.0463 51.5594 31.081C51.5325 31.1144 51.4969 31.1478 51.4526 31.1812C51.4083 31.2132 51.3597 31.2392 51.307 31.2593C51.2542 31.278 51.1933 31.2933 51.1242 31.3053C51.0566 31.3187 50.984 31.3253 50.9065 31.3253C50.7569 31.3253 50.626 31.304 50.5136 31.2613C50.4013 31.2172 50.3109 31.1511 50.2424 31.063C50.1753 30.9749 50.139 30.8488 50.1334 30.6846L50.1319 30.6425L50.1464 30.1259L50.1533 29.4451C50.1528 29.3903 50.1511 29.3222 50.1484 29.2408C50.2754 29.2435 50.3749 29.2448 50.447 29.2448C50.5232 29.2448 50.6153 29.2435 50.7234 29.2408L50.6883 30.1539C50.6867 30.2247 50.6855 30.2847 50.6845 30.3341C50.6848 30.3822 50.6853 30.4169 50.686 30.4383C50.6893 30.5344 50.706 30.6145 50.7362 30.6786C50.7678 30.7413 50.8195 30.7894 50.8914 30.8227C50.9647 30.8561 51.0421 30.8728 51.1235 30.8728C51.201 30.8728 51.274 30.8581 51.3424 30.8287C51.4043 30.802 51.4565 30.7647 51.4989 30.7166C51.5427 30.6685 51.5786 30.6038 51.6065 30.5224C51.6272 30.4636 51.6418 30.3822 51.6503 30.2781C51.6571 30.2046 51.6615 30.0785 51.6635 29.8996C51.6668 29.6834 51.6667 29.4638 51.6631 29.2408C51.7954 29.2435 51.8963 29.2448 51.9658 29.2448C52.0446 29.2448 52.1333 29.2435 52.2321 29.2408C52.2226 29.4317 52.214 29.6707 52.2064 29.9577C52.1988 30.2434 52.1948 30.4796 52.1945 30.6665C52.1941 30.8521 52.1957 31.0557 52.1992 31.2773Z" fill="#2B4872"/>
<path d="M52.6941 31.2773L52.7198 30.3261L52.7171 29.7735C52.7159 29.66 52.7133 29.5459 52.7094 29.431C52.7087 29.411 52.7052 29.3476 52.6989 29.2408C52.8233 29.2435 52.9148 29.2448 52.9736 29.2448C53.0417 29.2448 53.1318 29.2435 53.2439 29.2408L53.2435 29.5232C53.2918 29.4511 53.3334 29.3977 53.3683 29.363C53.4031 29.3269 53.4421 29.2962 53.4854 29.2709C53.5299 29.2455 53.5793 29.2261 53.6337 29.2128C53.688 29.1994 53.7438 29.1928 53.8013 29.1928C53.8547 29.1928 53.9097 29.1994 53.9663 29.2128C53.9705 29.3369 53.9818 29.4945 54.0004 29.6854C53.9208 29.664 53.849 29.6533 53.7849 29.6533C53.7074 29.6533 53.639 29.6653 53.5797 29.6894C53.5217 29.7121 53.4695 29.7474 53.4231 29.7955C53.3779 29.8422 53.3411 29.9003 53.3128 29.9697C53.2893 30.0258 53.2731 30.0985 53.2641 30.188C53.2558 30.2574 53.2505 30.3762 53.2482 30.5444C53.2472 30.7126 53.2495 30.8781 53.2551 31.041C53.2572 31.1037 53.2619 31.1825 53.2691 31.2773C53.1675 31.2746 53.0746 31.2733 52.9905 31.2733C52.9077 31.2733 52.8089 31.2746 52.6941 31.2773Z" fill="#2B4872"/>
<path d="M55.2614 31.2392L55.2023 30.7987C55.335 30.8521 55.4472 30.8895 55.5387 30.9108C55.6302 30.9309 55.7141 30.9409 55.7902 30.9409C55.8663 30.9409 55.9302 30.9322 55.9817 30.9148C56.0331 30.8962 56.071 30.8695 56.0951 30.8347C56.1193 30.7987 56.1307 30.7613 56.1294 30.7226C56.1288 30.7053 56.1263 30.6892 56.1218 30.6746C56.1186 30.6599 56.1121 30.6445 56.1022 30.6285C56.0936 30.6125 56.0831 30.5978 56.0706 30.5844C56.0594 30.5698 56.0435 30.5537 56.0229 30.5364C56.0022 30.5177 55.9727 30.4943 55.9343 30.4663L55.8232 30.3802C55.7163 30.2988 55.6346 30.2347 55.5783 30.188C55.5219 30.1412 55.4742 30.0938 55.4352 30.0458C55.3961 29.9964 55.3656 29.945 55.3438 29.8916C55.3232 29.8369 55.312 29.7815 55.3101 29.7254C55.3068 29.628 55.333 29.5352 55.3888 29.4471C55.4459 29.359 55.5305 29.2949 55.6427 29.2548C55.7548 29.2134 55.8877 29.1928 56.0413 29.1928C56.2163 29.1928 56.4187 29.2134 56.6485 29.2548L56.6888 29.6733C56.5317 29.6106 56.3817 29.5792 56.2388 29.5792C56.1613 29.5792 56.0934 29.5872 56.0352 29.6033C55.9783 29.6179 55.9377 29.6413 55.9134 29.6733C55.889 29.704 55.8775 29.7388 55.8789 29.7775C55.8796 29.8002 55.8844 29.8229 55.8932 29.8455C55.9019 29.8669 55.9167 29.8896 55.9376 29.9136C55.9584 29.9377 55.9819 29.9604 56.008 29.9817C56.0355 30.0031 56.0917 30.0451 56.1766 30.1079C56.2616 30.1706 56.3356 30.2273 56.3988 30.2781C56.4633 30.3288 56.5165 30.3802 56.5583 30.4323C56.6001 30.483 56.6327 30.5377 56.6561 30.5965C56.6794 30.6552 56.6921 30.7146 56.6942 30.7747C56.6976 30.8748 56.67 30.9676 56.6115 31.053C56.5529 31.1384 56.4624 31.2052 56.3398 31.2533C56.2172 31.3013 56.0791 31.3253 55.9255 31.3253C55.8454 31.3253 55.7476 31.3187 55.6323 31.3053C55.517 31.2933 55.3934 31.2713 55.2614 31.2392Z" fill="#2B4872"/>
<path d="M57.2162 29.6874C57.2316 29.5912 57.2407 29.5238 57.2434 29.4851C57.2474 29.4464 57.2541 29.3877 57.2634 29.3089C57.4436 29.2662 57.6029 29.2361 57.7412 29.2188C57.8795 29.2014 58.0135 29.1928 58.1431 29.1928C58.29 29.1928 58.4255 29.2101 58.5495 29.2448C58.6736 29.2782 58.7716 29.3323 58.8436 29.407C58.9156 29.4818 58.954 29.5892 58.9587 29.7294C58.9613 29.8055 58.9572 29.9997 58.9465 30.3121C58.9357 30.6232 58.934 30.9449 58.9413 31.2773C58.8397 31.2746 58.7461 31.2733 58.6606 31.2733C58.5792 31.2733 58.4837 31.2746 58.3743 31.2773C58.3861 31.1158 58.3938 30.9289 58.3973 30.7166L58.4063 30.218C58.3567 30.2514 58.3188 30.2747 58.2925 30.2881C58.2663 30.3014 58.2366 30.3141 58.2036 30.3261C58.1706 30.3368 58.1124 30.3542 58.0291 30.3782C57.9457 30.4009 57.879 30.4209 57.8288 30.4383C57.7786 30.4556 57.7332 30.4756 57.6926 30.4983C57.6532 30.5197 57.62 30.5444 57.5929 30.5724C57.5658 30.5991 57.5461 30.6278 57.5337 30.6585C57.5227 30.6879 57.5178 30.7199 57.519 30.7546C57.5209 30.8107 57.5386 30.8594 57.572 30.9008C57.6068 30.9409 57.6492 30.9689 57.6991 30.9849C57.7491 31.0009 57.8075 31.009 57.8742 31.009C57.917 31.009 57.9616 31.0056 58.0081 30.9989C58.056 30.9923 58.1196 30.9756 58.1988 30.9489C58.1733 31.025 58.1445 31.1384 58.1122 31.2893C58.0179 31.3053 57.9428 31.3153 57.8868 31.3193C57.8308 31.3233 57.7788 31.3253 57.7307 31.3253C57.5624 31.3253 57.4234 31.3026 57.3137 31.2573C57.2039 31.2119 57.1213 31.1398 57.0659 31.041C57.0118 30.9422 56.983 30.8428 56.9796 30.7426C56.9776 30.6852 56.9857 30.6285 57.0039 30.5724C57.022 30.5164 57.0496 30.465 57.0868 30.4182C57.1239 30.3715 57.1725 30.3268 57.2325 30.2841C57.2924 30.24 57.3798 30.198 57.4947 30.1579C57.6095 30.1165 57.7617 30.0752 57.9513 30.0338C58.0017 30.0231 58.054 30.0104 58.1083 29.9957C58.1625 29.9797 58.2054 29.9644 58.2369 29.9497C58.2698 29.935 58.2979 29.9163 58.3212 29.8936C58.3444 29.8696 58.3609 29.8449 58.3707 29.8195C58.3819 29.7942 58.387 29.7681 58.3861 29.7414C58.3843 29.6894 58.3655 29.6453 58.3295 29.6093C58.2949 29.5732 58.25 29.5485 58.1948 29.5352C58.1408 29.5205 58.0812 29.5131 58.0157 29.5131C57.7726 29.5131 57.5061 29.5712 57.2162 29.6874Z" fill="#2B4872"/>
<path d="M59.4462 31.2773C59.4585 31.0517 59.4688 30.6465 59.477 30.0618C59.4864 29.4758 59.4872 28.9698 59.4794 28.544C59.6184 28.5466 59.7173 28.548 59.7761 28.548C59.8549 28.548 59.951 28.5466 60.0645 28.544L60.0412 29.2749L60.0266 30.9048L60.0312 31.2773C59.9216 31.2746 59.8287 31.2733 59.7526 31.2733C59.7272 31.2733 59.6251 31.2746 59.4462 31.2773Z" fill="#2B4872"/>
<path d="M62.3379 30.8227C62.3232 30.9015 62.3033 31.043 62.2782 31.2472C62.135 31.278 62.0142 31.2986 61.9157 31.3093C61.8172 31.32 61.7179 31.3253 61.6177 31.3253C61.4427 31.3253 61.2852 31.308 61.1451 31.2733C61.0063 31.2386 60.8833 31.1752 60.776 31.083C60.6686 30.9896 60.5879 30.8755 60.5339 30.7406C60.4799 30.6058 60.4504 30.4643 60.4453 30.3161C60.4397 30.1519 60.463 29.9931 60.5153 29.8395C60.5674 29.6847 60.6433 29.5585 60.7428 29.4611C60.8436 29.3623 60.9595 29.2929 61.0904 29.2528C61.2212 29.2114 61.3587 29.1908 61.503 29.1908C61.6392 29.1908 61.7694 29.2081 61.8935 29.2428C62.0175 29.2762 62.1222 29.3316 62.2077 29.409C62.2945 29.4864 62.3617 29.5799 62.4096 29.6894C62.4586 29.7975 62.4855 29.9183 62.49 30.0518C62.4921 30.1145 62.4877 30.1793 62.4766 30.246L61.008 30.248C61.007 30.2974 61.007 30.3368 61.008 30.3662C61.0111 30.4556 61.0292 30.5377 61.0625 30.6125C61.0958 30.6872 61.1427 30.7506 61.2032 30.8027C61.2637 30.8548 61.3352 30.8935 61.4175 30.9188C61.4998 30.9429 61.5804 30.9549 61.6592 30.9549C61.7514 30.9549 61.8505 30.9449 61.9567 30.9249C62.0642 30.9048 62.1913 30.8708 62.3379 30.8227ZM61.0161 30.0138L61.9538 30.0158C61.9516 29.9517 61.948 29.9043 61.943 29.8736C61.9379 29.8429 61.9274 29.8082 61.9114 29.7695C61.8967 29.7294 61.8768 29.6947 61.8517 29.6653C61.8267 29.6346 61.7977 29.6093 61.765 29.5892C61.7323 29.5692 61.6943 29.5539 61.6512 29.5432C61.6095 29.5325 61.5645 29.5272 61.5164 29.5272C61.4603 29.5272 61.4059 29.5358 61.353 29.5532C61.3015 29.5705 61.2543 29.5959 61.2114 29.6293C61.1684 29.6627 61.1336 29.7 61.107 29.7414C61.0817 29.7828 61.063 29.8229 61.051 29.8616C61.0389 29.8989 61.0273 29.9497 61.0161 30.0138Z" fill="#2B4872"/>
<path d="M62.7788 31.2392L62.7198 30.7987C62.8525 30.8521 62.9646 30.8895 63.0562 30.9108C63.1477 30.9309 63.2315 30.9409 63.3077 30.9409C63.3838 30.9409 63.4476 30.9322 63.4991 30.9148C63.5506 30.8962 63.5884 30.8695 63.6126 30.8347C63.6368 30.7987 63.6482 30.7613 63.6469 30.7226C63.6463 30.7053 63.6437 30.6892 63.6392 30.6746C63.636 30.6599 63.6295 30.6445 63.6196 30.6285C63.6111 30.6125 63.6005 30.5978 63.5881 30.5844C63.5769 30.5698 63.561 30.5537 63.5403 30.5364C63.5197 30.5177 63.4902 30.4943 63.4518 30.4663L63.3407 30.3802C63.2337 30.2988 63.1521 30.2347 63.0957 30.188C63.0394 30.1412 62.9917 30.0938 62.9526 30.0458C62.9136 29.9964 62.8831 29.945 62.8612 29.8916C62.8407 29.8369 62.8294 29.7815 62.8275 29.7254C62.8242 29.628 62.8504 29.5352 62.9062 29.4471C62.9633 29.359 63.048 29.2949 63.1601 29.2548C63.2723 29.2134 63.4051 29.1928 63.5587 29.1928C63.7337 29.1928 63.9361 29.2134 64.1659 29.2548L64.2062 29.6733C64.0491 29.6106 63.8991 29.5792 63.7562 29.5792C63.6788 29.5792 63.6109 29.5872 63.5527 29.6033C63.4957 29.6179 63.4551 29.6413 63.4308 29.6733C63.4065 29.704 63.395 29.7388 63.3963 29.7775C63.3971 29.8002 63.4019 29.8229 63.4106 29.8455C63.4194 29.8669 63.4342 29.8896 63.455 29.9136C63.4759 29.9377 63.4994 29.9604 63.5255 29.9817C63.5529 30.0031 63.6091 30.0451 63.6941 30.1079C63.779 30.1706 63.8531 30.2273 63.9162 30.2781C63.9807 30.3288 64.0339 30.3802 64.0758 30.4323C64.1176 30.483 64.1501 30.5377 64.1735 30.5965C64.1969 30.6552 64.2096 30.7146 64.2116 30.7747C64.215 30.8748 64.1875 30.9676 64.1289 31.053C64.0704 31.1384 63.9798 31.2052 63.8573 31.2533C63.7347 31.3013 63.5966 31.3253 63.443 31.3253C63.3628 31.3253 63.2651 31.3187 63.1498 31.3053C63.0345 31.2933 62.9108 31.2713 62.7788 31.2392Z" fill="#2B4872"/>
<path d="M65.7334 31.2773L65.7462 30.9469L65.7621 29.6453H65.5136C65.5163 29.6053 65.5181 29.5405 65.519 29.4511C65.5213 29.3603 65.5224 29.2942 65.5223 29.2528H65.7948L65.7921 29.1727C65.7872 29.0299 65.7895 28.9211 65.799 28.8463C65.8084 28.7702 65.8284 28.7082 65.8588 28.6601C65.8905 28.6121 65.9352 28.5707 65.9928 28.536C66.0517 28.4999 66.1163 28.4759 66.1867 28.4639C66.257 28.4505 66.3296 28.4438 66.4044 28.4438C66.5567 28.4438 66.7184 28.4652 66.8895 28.5079C66.8985 28.6574 66.9103 28.7856 66.9246 28.8924C66.7948 28.847 66.6772 28.8243 66.5716 28.8243C66.5302 28.8243 66.4923 28.8296 66.458 28.8403C66.4236 28.8497 66.3953 28.863 66.3732 28.8804C66.3524 28.8977 66.3351 28.9204 66.3214 28.9485C66.3077 28.9765 66.2988 29.0099 66.2947 29.0486C66.2907 29.086 66.2895 29.1293 66.2912 29.1787L66.2937 29.2528H66.8046C66.7997 29.3449 66.7961 29.4758 66.7939 29.6453H66.313C66.3057 30.1766 66.3049 30.7206 66.3105 31.2773C66.1888 31.2746 66.0919 31.2733 66.0198 31.2733C65.9463 31.2733 65.8509 31.2746 65.7334 31.2773Z" fill="#2B4872"/>
<path d="M67.0718 31.2773C67.0842 31.0517 67.0944 30.6465 67.1026 30.0618C67.1121 29.4758 67.1129 28.9698 67.1051 28.544C67.2441 28.5466 67.343 28.548 67.4017 28.548C67.4805 28.548 67.5767 28.5466 67.6901 28.544L67.6669 29.2749L67.6522 30.9048L67.6569 31.2773C67.5473 31.2746 67.4544 31.2733 67.3782 31.2733C67.3529 31.2733 67.2507 31.2746 67.0718 31.2773Z" fill="#2B4872"/>
<path d="M69.1848 29.1928C69.3384 29.1928 69.4861 29.2161 69.628 29.2628C69.7711 29.3082 69.893 29.3763 69.9936 29.4671C70.0955 29.5565 70.1733 29.6667 70.2272 29.7975C70.281 29.927 70.3104 30.0638 70.3153 30.208C70.3205 30.3602 70.2994 30.507 70.2522 30.6485C70.2049 30.79 70.1336 30.9128 70.0383 31.017C69.9429 31.1198 69.822 31.1972 69.6755 31.2492C69.5303 31.3 69.3742 31.3253 69.2073 31.3253C69.0523 31.3253 68.904 31.3026 68.7622 31.2573C68.6217 31.2105 68.5004 31.1411 68.3984 31.049C68.2965 30.9569 68.2172 30.8448 68.1606 30.7126C68.1053 30.5804 68.0753 30.4423 68.0704 30.2981C68.0654 30.1513 68.084 30.0111 68.1262 29.8776C68.1684 29.7441 68.2371 29.6253 68.3324 29.5212C68.4291 29.417 68.5539 29.3363 68.7069 29.2789C68.8599 29.2215 69.0192 29.1928 69.1848 29.1928ZM69.1989 29.6053C69.0826 29.6053 68.9794 29.634 68.8892 29.6914C68.8003 29.7474 68.735 29.8315 68.6934 29.9437C68.6532 30.0558 68.6353 30.1779 68.6398 30.3101C68.6437 30.4263 68.6653 30.5297 68.7044 30.6205C68.7449 30.7113 68.8075 30.7847 68.8923 30.8408C68.9783 30.8968 69.0788 30.9249 69.1937 30.9249C69.3112 30.9249 69.4131 30.8962 69.4993 30.8388C69.5868 30.78 69.6507 30.6946 69.6909 30.5824C69.7325 30.469 69.7509 30.3442 69.7463 30.208C69.7425 30.0972 69.7217 29.9964 69.6839 29.9056C69.6461 29.8148 69.5849 29.7421 69.5002 29.6874C69.4168 29.6326 69.3164 29.6053 69.1989 29.6053Z" fill="#2B4872"/>
<path d="M70.7965 29.6874C70.8119 29.5912 70.821 29.5238 70.8237 29.4851C70.8277 29.4464 70.8344 29.3877 70.8437 29.3089C71.0239 29.2662 71.1832 29.2361 71.3215 29.2188C71.4599 29.2014 71.5938 29.1928 71.7234 29.1928C71.8703 29.1928 72.0058 29.2101 72.1299 29.2448C72.2539 29.2782 72.3519 29.3323 72.4239 29.407C72.4959 29.4818 72.5343 29.5892 72.539 29.7294C72.5416 29.8055 72.5376 29.9997 72.5268 30.3121C72.516 30.6232 72.5143 30.9449 72.5216 31.2773C72.42 31.2746 72.3264 31.2733 72.2409 31.2733C72.1595 31.2733 72.064 31.2746 71.9546 31.2773C71.9664 31.1158 71.9741 30.9289 71.9776 30.7166L71.9867 30.218C71.937 30.2514 71.8991 30.2747 71.8728 30.2881C71.8466 30.3014 71.8169 30.3141 71.784 30.3261C71.7509 30.3368 71.6928 30.3542 71.6094 30.3782C71.526 30.4009 71.4593 30.4209 71.4091 30.4383C71.3589 30.4556 71.3135 30.4756 71.2729 30.4983C71.2335 30.5197 71.2003 30.5444 71.1732 30.5724C71.1461 30.5991 71.1264 30.6278 71.114 30.6585C71.103 30.6879 71.0981 30.7199 71.0993 30.7546C71.1012 30.8107 71.1189 30.8594 71.1523 30.9008C71.1871 30.9409 71.2295 30.9689 71.2794 30.9849C71.3294 31.0009 71.3878 31.009 71.4546 31.009C71.4973 31.009 71.5419 31.0056 71.5885 30.9989C71.6363 30.9923 71.6999 30.9756 71.7791 30.9489C71.7536 31.025 71.7248 31.1384 71.6925 31.2893C71.5982 31.3053 71.5231 31.3153 71.4671 31.3193C71.4112 31.3233 71.3591 31.3253 71.311 31.3253C71.1427 31.3253 71.0037 31.3026 70.894 31.2573C70.7843 31.2119 70.7017 31.1398 70.6462 31.041C70.5921 30.9422 70.5633 30.8428 70.5599 30.7426C70.558 30.6852 70.566 30.6285 70.5842 30.5724C70.6023 30.5164 70.6299 30.465 70.6671 30.4182C70.7042 30.3715 70.7528 30.3268 70.8128 30.2841C70.8727 30.24 70.9601 30.198 71.075 30.1579C71.1898 30.1165 71.342 30.0752 71.5316 30.0338C71.582 30.0231 71.6343 30.0104 71.6886 29.9957C71.7428 29.9797 71.7857 29.9644 71.8172 29.9497C71.8501 29.935 71.8782 29.9163 71.9015 29.8936C71.9247 29.8696 71.9412 29.8449 71.9511 29.8195C71.9622 29.7942 71.9673 29.7681 71.9664 29.7414C71.9647 29.6894 71.9458 29.6453 71.9098 29.6093C71.8752 29.5732 71.8303 29.5485 71.7751 29.5352C71.7212 29.5205 71.6615 29.5131 71.596 29.5131C71.3529 29.5131 71.0864 29.5712 70.7965 29.6874Z" fill="#2B4872"/>
<path d="M74.2605 30.8588C74.247 30.9322 74.2262 31.0684 74.1982 31.2673C74.0869 31.2926 73.9993 31.3087 73.9354 31.3153C73.8715 31.322 73.8115 31.3253 73.7554 31.3253C73.6566 31.3253 73.5674 31.316 73.488 31.2973C73.4099 31.2786 73.3447 31.2459 73.2923 31.1992C73.2399 31.1511 73.2033 31.0957 73.1825 31.033C73.1629 30.9689 73.152 30.9028 73.1497 30.8347C73.1491 30.8174 73.149 30.794 73.1493 30.7647C73.1496 30.7353 73.1518 30.6405 73.1557 30.4803L73.1734 29.6473H72.8849C72.8888 29.5672 72.8905 29.4384 72.8898 29.2608H73.1923C73.1977 29.1834 73.2012 29.0519 73.2029 28.8664L73.4378 28.8203C73.4869 28.811 73.5816 28.7889 73.722 28.7542C73.7188 28.9344 73.7192 29.1033 73.7233 29.2608H74.2322C74.2289 29.4411 74.2287 29.5699 74.2313 29.6473H73.7204C73.7108 30.1906 73.7075 30.505 73.7104 30.5905C73.7132 30.6732 73.7241 30.7373 73.743 30.7827C73.7632 30.8281 73.7937 30.8608 73.8345 30.8808C73.8752 30.9008 73.9183 30.9108 73.9637 30.9108C73.9971 30.9108 74.0318 30.9082 74.0676 30.9028C74.1049 30.8975 74.1691 30.8828 74.2605 30.8588Z" fill="#2B4872"/>
</svg>
